<?xml version="1.0" encoding="UTF-8"?>
<svg width="497px" height="497px" viewBox="0 0 497 497" version="1.1" xmlns="http://www.w3.org/2000/svg" xmlns:xlink="http://www.w3.org/1999/xlink">
    <!-- Generator: Sketch 49 (51002) - http://www.bohemiancoding.com/sketch -->
    <title>Untitled 2</title>
    <desc>Created with Sketch.</desc>
    <defs></defs>
    <g id="Page-1" stroke="none" stroke-width="1" fill="none" fill-rule="evenodd">
        <g id="004-cancel" fill-rule="nonzero">
            <path d="M496.158,248.085 C496.158,111.064 385.088,0.003 248.082,0.003 C111.07,0.003 0,111.063 0,248.085 C0,385.087 111.07,496.155 248.082,496.155 C385.088,496.155 496.158,385.087 496.158,248.085 Z" id="Shape" fill="#9A2B28"></path>
            <path d="M277.042,248.082 L349.57,163.886 C357.48,154.704 356.446,140.845 347.26,132.935 C338.088,125.031 324.228,126.059 316.313,135.241 L248.077,214.453 L179.848,135.241 C171.938,126.053 158.077,125.025 148.894,132.935 C139.708,140.845 138.68,154.705 146.59,163.886 L219.112,248.082 L146.59,332.274 C138.68,341.456 139.708,355.315 148.894,363.225 C153.037,366.794 158.135,368.543 163.21,368.543 C169.371,368.543 175.504,365.957 179.848,360.919 L248.077,281.707 L316.313,360.919 C320.651,365.96 326.783,368.543 332.95,368.543 C338.019,368.543 343.118,366.794 347.261,363.225 C356.447,355.315 357.481,341.455 349.571,332.274 L277.042,248.082 Z" id="Shape" fill="#FFFFFF"></path>
        </g>
    </g>
</svg>