<?xml version="1.0" encoding="UTF-8"?>
<svg width="364px" height="512px" viewBox="0 0 364 512" version="1.1" xmlns="http://www.w3.org/2000/svg" xmlns:xlink="http://www.w3.org/1999/xlink">
    <!-- Generator: Sketch 49 (51002) - http://www.bohemiancoding.com/sketch -->
    <title>Untitled</title>
    <desc>Created with Sketch.</desc>
    <defs></defs>
    <g id="Page-1" stroke="none" stroke-width="1" fill="none" fill-rule="evenodd">
        <g id="001-lock" fill-rule="nonzero">
            <path d="M182,0 C105.456,0.094 43.427,62.122 43.333,138.667 L43.333,224 C43.333,229.891 48.109,234.667 54,234.667 L96.667,234.667 C102.558,234.667 107.334,229.891 107.334,224 L107.334,138.667 C107.333,97.429 140.763,64 182,64 C223.237,64 256.667,97.429 256.667,138.667 L256.667,224 C256.667,229.891 261.443,234.667 267.334,234.667 L310,234.667 C315.891,234.667 320.667,229.891 320.667,224 L320.667,138.667 C320.573,62.122 258.544,0.094 182,0 Z" id="Shape" fill="#455A64"></path>
            <path d="M54,213.333 L310,213.333 C339.455,213.333 363.333,237.211 363.333,266.666 L363.333,458.666 C363.333,488.122 339.455,512 310,512 L54,512 C24.545,512 0.667,488.122 0.667,458.667 L0.667,266.667 C0.667,237.211 24.545,213.333 54,213.333 Z" id="Shape" fill="#9A2B28"></path>
            <path d="M236.333,330.667 C236.457,301.212 212.68,277.233 183.225,277.109 C153.77,276.985 129.791,300.762 129.667,330.217 C129.581,350.577 141.094,369.209 159.341,378.24 L151.106,435.84 C150.281,441.673 154.341,447.07 160.174,447.895 C160.668,447.965 161.167,448 161.666,448 L204.333,448 C210.224,448.06 215.048,443.333 215.107,437.442 C215.112,436.899 215.077,436.356 214.999,435.819 L206.764,378.219 C224.788,369.199 236.216,350.82 236.333,330.667 Z" id="Shape" fill="#FCE7D7"></path>
        </g>
    </g>
</svg>